<?xml version="1.0" encoding="utf-8"?>
<!-- Generator: Adobe Illustrator 16.0.0, SVG Export Plug-In . SVG Version: 6.00 Build 0)  -->
<!DOCTYPE svg PUBLIC "-//W3C//DTD SVG 1.1//EN" "http://www.w3.org/Graphics/SVG/1.1/DTD/svg11.dtd">
<svg version="1.1" id="Layer_2" xmlns="http://www.w3.org/2000/svg" xmlns:xlink="http://www.w3.org/1999/xlink" x="0px" y="0px"
	 width="64px" height="64px" viewBox="0 0 64 64" enable-background="new 0 0 64 64" xml:space="preserve">
<g>
	<path d="M47.172,41.172c1.556,1.556,1.556,4.101,0,5.656l-0.344,0.344c-1.556,1.556-4.101,1.556-5.656,0L16.829,22.829
		c-1.556-1.556-1.556-4.102,0-5.657l0.343-0.343c1.556-1.556,4.102-1.556,5.657,0L47.172,41.172z"/>
</g>
<g>
	<path d="M22.829,47.172c-1.556,1.556-4.102,1.556-5.657,0l-0.343-0.344c-1.556-1.556-1.556-4.101,0-5.656l24.343-24.343
		c1.556-1.556,4.101-1.556,5.656,0l0.344,0.343c1.556,1.556,1.556,4.102,0,5.657L22.829,47.172z"/>
</g>
</svg>
