<?xml version="1.0" encoding="utf-8"?>
<!-- Generator: Adobe Illustrator 16.0.0, SVG Export Plug-In . SVG Version: 6.00 Build 0)  -->
<!DOCTYPE svg PUBLIC "-//W3C//DTD SVG 1.1//EN" "http://www.w3.org/Graphics/SVG/1.1/DTD/svg11.dtd">
<svg version="1.1" id="Layer_2" xmlns="http://www.w3.org/2000/svg" xmlns:xlink="http://www.w3.org/1999/xlink" x="0px" y="0px"
	 width="64px" height="64px" viewBox="0 0 64 64" enable-background="new 0 0 64 64" xml:space="preserve">
<path d="M32,14c-9.941,0-18,8.059-18,18c0,9.94,8.059,18,18,18c9.94,0,18-8.06,18-18C50,22.059,41.939,14,32,14z M32,18
	c2.209,0,4,1.791,4,4s-1.791,4-4,4s-4-1.791-4-4S29.791,18,32,18z M40,44H24v-4h4v-8h-4v-4h12v12h4V44z"/>
</svg>
