<?xml version="1.0" encoding="utf-8"?>
<!-- Generator: Adobe Illustrator 16.0.0, SVG Export Plug-In . SVG Version: 6.00 Build 0)  -->
<!DOCTYPE svg PUBLIC "-//W3C//DTD SVG 1.1//EN" "http://www.w3.org/Graphics/SVG/1.1/DTD/svg11.dtd">
<svg version="1.1" id="Layer_2" xmlns="http://www.w3.org/2000/svg" xmlns:xlink="http://www.w3.org/1999/xlink" x="0px" y="0px"
	 width="64px" height="64px" viewBox="0 0 64 64" enable-background="new 0 0 64 64" xml:space="preserve">
<path d="M46,20H35l10-10h-4.25L32,18.75L23.25,10H19l10,10H18c-2.2,0-4,1.8-4,4v22c0,2.2,1.8,4,4,4h28c2.2,0,4-1.8,4-4V24
	C50,21.8,48.2,20,46,20z M46,39c0,1.65-1.35,3-3,3H21c-1.65,0-3-1.35-3-3V27c0-1.65,1.35-3,3-3h22c1.65,0,3,1.35,3,3V39z"/>
</svg>
