<?xml version="1.0" encoding="utf-8"?>
<!-- Generator: Adobe Illustrator 16.0.0, SVG Export Plug-In . SVG Version: 6.00 Build 0)  -->
<!DOCTYPE svg PUBLIC "-//W3C//DTD SVG 1.1//EN" "http://www.w3.org/Graphics/SVG/1.1/DTD/svg11.dtd">
<svg version="1.1" id="Layer_2" xmlns="http://www.w3.org/2000/svg" xmlns:xlink="http://www.w3.org/1999/xlink" x="0px" y="0px"
	 width="64px" height="64px" viewBox="0 0 64 64" enable-background="new 0 0 64 64" xml:space="preserve">
<path d="M43,30v-6H19c0,0-8,0-11,8c0-16,11-16,11-16h24v-6l10,10L43,30z"/>
<path d="M45,40h-8.69c-1.64-4.66-6.08-8-11.31-8c-6.63,0-12,5.37-12,12s5.37,12,12,12c5.23,0,9.67-3.34,11.31-8H45c0,0,11,0,11-16
	C53,40,45,40,45,40z M30,51h-9v-3h3v-6h-3v-2c3,0,3-3,3-3h3v11h3V51z"/>
</svg>
