<?xml version="1.0" encoding="utf-8"?>
<!-- Generator: Adobe Illustrator 16.0.0, SVG Export Plug-In . SVG Version: 6.00 Build 0)  -->
<!DOCTYPE svg PUBLIC "-//W3C//DTD SVG 1.1//EN" "http://www.w3.org/Graphics/SVG/1.1/DTD/svg11.dtd">
<svg version="1.1" id="Layer_2" xmlns="http://www.w3.org/2000/svg" xmlns:xlink="http://www.w3.org/1999/xlink" x="0px" y="0px"
	 width="64px" height="64px" viewBox="0 0 64 64" enable-background="new 0 0 64 64" xml:space="preserve">
<g>
	<path d="M22,12c5.514,0,10,4.486,10,10s-4.486,10-10,10s-10-4.486-10-10S16.486,12,22,12 M22,4C12.059,4,4,12.059,4,22
		c0,9.94,8.059,18,18,18c9.94,0,18-8.06,18-18C40,12.059,31.94,4,22,4L22,4z"/>
</g>
<g>
	<path d="M59.086,50.586c0.777,0.777,0.777,2.051,0,2.828l-5.172,5.172c-0.777,0.777-2.051,0.777-2.828,0L33.914,41.414
		c-0.777-0.777-0.777-2.051,0-2.828l5.172-5.172c0.777-0.777,2.051-0.777,2.828,0L59.086,50.586z"/>
</g>
</svg>
