<?xml version="1.0" encoding="utf-8"?>
<!-- Generator: Adobe Illustrator 16.0.0, SVG Export Plug-In . SVG Version: 6.00 Build 0)  -->
<!DOCTYPE svg PUBLIC "-//W3C//DTD SVG 1.1//EN" "http://www.w3.org/Graphics/SVG/1.1/DTD/svg11.dtd">
<svg version="1.1" id="Layer_2" xmlns="http://www.w3.org/2000/svg" xmlns:xlink="http://www.w3.org/1999/xlink" x="0px" y="0px"
	 width="64px" height="64px" viewBox="0 0 64 64" enable-background="new 0 0 64 64" xml:space="preserve">
<g>
	<path d="M24,16.5c4.136,0,7.5,3.364,7.5,7.5s-3.364,7.5-7.5,7.5s-7.5-3.364-7.5-7.5S19.864,16.5,24,16.5 M24,10.5
		c-7.456,0-13.5,6.044-13.5,13.5S16.544,37.5,24,37.5c7.455,0,13.5-6.044,13.5-13.5S31.455,10.5,24,10.5L24,10.5z"/>
</g>
<g>
	<path d="M51.586,45.586c0.777,0.777,0.777,2.051,0,2.828l-3.172,3.172c-0.777,0.777-2.051,0.777-2.828,0L33.414,39.414
		c-0.777-0.777-0.777-2.051,0-2.828l3.172-3.172c0.777-0.777,2.051-0.777,2.828,0L51.586,45.586z"/>
</g>
</svg>
