<?xml version="1.0" encoding="utf-8"?>
<!-- Generator: Adobe Illustrator 16.0.0, SVG Export Plug-In . SVG Version: 6.00 Build 0)  -->
<!DOCTYPE svg PUBLIC "-//W3C//DTD SVG 1.1//EN" "http://www.w3.org/Graphics/SVG/1.1/DTD/svg11.dtd">
<svg version="1.1" id="Layer_2" xmlns="http://www.w3.org/2000/svg" xmlns:xlink="http://www.w3.org/1999/xlink" x="0px" y="0px"
	 width="64px" height="64px" viewBox="0 0 64 64" enable-background="new 0 0 64 64" xml:space="preserve">
<path d="M50,35v-6l-5.54-0.692c-0.272-0.922-0.643-1.801-1.103-2.625L47,21l-4.001-4l-4.683,3.642
	c-0.823-0.459-1.702-0.83-2.624-1.102L35,14h-6l-0.692,5.54c-0.922,0.272-1.801,0.643-2.625,1.103L21,17l-4,4.001l3.642,4.682
	c-0.459,0.824-0.829,1.702-1.102,2.624L14,29v6l5.54,0.692c0.272,0.922,0.643,1.801,1.103,2.625L17,43l4.001,4l4.683-3.642
	c0.824,0.459,1.702,0.829,2.624,1.102L29,50h6l0.692-5.54c0.922-0.272,1.801-0.643,2.624-1.102L43,47l4-4l-3.643-4.683
	c0.46-0.824,0.83-1.703,1.103-2.625L50,35z M32,38c-3.313,0-6-2.687-6-6s2.687-6,6-6s6,2.687,6,6S35.313,38,32,38z"/>
</svg>
