<?xml version="1.0" encoding="utf-8"?>
<!-- Generator: Adobe Illustrator 16.0.0, SVG Export Plug-In . SVG Version: 6.00 Build 0)  -->
<!DOCTYPE svg PUBLIC "-//W3C//DTD SVG 1.1//EN" "http://www.w3.org/Graphics/SVG/1.1/DTD/svg11.dtd">
<svg version="1.1" id="Layer_2" xmlns="http://www.w3.org/2000/svg" xmlns:xlink="http://www.w3.org/1999/xlink" x="0px" y="0px"
	 width="64px" height="64px" viewBox="0 0 64 64" enable-background="new 0 0 64 64" xml:space="preserve">
<path d="M48,29v-5h-8c-2.46,0-4.38,2.77-4.57,3.06L27.47,40.98C25.88,43.64,21.73,48,16,48H8v-8h8c2.46,0,4.38-2.77,4.57-3.06
	l7.96-13.92C30.12,20.36,34.27,16,40,16h8v-5l11,9L48,29z"/>
<path d="M26.31,21.4l-4.49,7.85l-1.25-2.19C20.38,26.77,18.46,24,16,24H8v-8h8C20.66,16,24.28,18.89,26.31,21.4z"/>
<path d="M48,53v-5h-8c-4.66,0-8.28-2.89-10.31-5.4l4.49-7.85l1.25,2.19C35.62,37.23,37.54,40,40,40h8v-5l11,9L48,53z"/>
</svg>
