<?xml version="1.0" encoding="utf-8"?>
<!-- Generator: Adobe Illustrator 16.0.0, SVG Export Plug-In . SVG Version: 6.00 Build 0)  -->
<!DOCTYPE svg PUBLIC "-//W3C//DTD SVG 1.1//EN" "http://www.w3.org/Graphics/SVG/1.1/DTD/svg11.dtd">
<svg version="1.1" id="Layer_2" xmlns="http://www.w3.org/2000/svg" xmlns:xlink="http://www.w3.org/1999/xlink" x="0px" y="0px"
	 width="64px" height="64px" viewBox="0 0 64 64" enable-background="new 0 0 64 64" xml:space="preserve">
<path d="M27,28c0-3.149-2.526-5.812-6-6.691V10h-5v11.309c-3.474,0.879-6,3.542-6,6.691c0,3.149,2.526,5.812,6,6.691V54h5V34.691
	C24.474,33.812,27,31.149,27,28z"/>
<path d="M54,36c0-3.149-2.526-5.812-6-6.691V10h-5v19.309c-3.474,0.879-6,3.542-6,6.691c0,3.148,2.526,5.812,6,6.691V54h5V42.691
	C51.474,41.812,54,39.148,54,36z"/>
</svg>
