<?xml version="1.0" encoding="utf-8"?>
<!-- Generator: Adobe Illustrator 16.0.0, SVG Export Plug-In . SVG Version: 6.00 Build 0)  -->
<!DOCTYPE svg PUBLIC "-//W3C//DTD SVG 1.1//EN" "http://www.w3.org/Graphics/SVG/1.1/DTD/svg11.dtd">
<svg version="1.1" id="Layer_2" xmlns="http://www.w3.org/2000/svg" xmlns:xlink="http://www.w3.org/1999/xlink" x="0px" y="0px"
	 width="64px" height="64px" viewBox="0 0 64 64" enable-background="new 0 0 64 64" xml:space="preserve">
<path fill-rule="evenodd" clip-rule="evenodd" d="M31.902,54C19.663,53.915,9.923,44.072,10,31.867
	c0.076-12.073,10.22-22.039,22.257-21.865c12.153,0.175,21.828,10.118,21.741,22.345C53.914,44.392,44.022,54.084,31.902,54z
	 M26.604,49.883c3.799-0.044,7.413-2.983,8.358-6.688c0.302-1.183-0.118-1.533-1.191-1.915c-4.609-1.642-9.169-3.414-13.533-5.66
	c-1.771-0.911-2.833-2.293-3.159-4.194c-0.12-0.695-0.712-1.77,0.473-2.087c0.791-0.212,1.946-0.598,2.347,0.636
	c0.289,0.888,0.636,0.809,1.174,0.335c0.746-0.655,1.741-1.204,2.146-2.034c0.953-1.954,2.244-3.234,4.474-3.465
	c0.567-0.059,1.119-0.239,1.001-1.081c-0.239-1.716-2.005-2.649-3.531-1.781c-0.43,0.244-0.828,0.736-1.246,0.161
	c-0.271-0.372-0.48-0.933-0.422-1.37c0.105-0.784,1.004-0.75,1.521-1.129c1.46-1.068,2.522-2.265,1.274-4.148
	c-1.358-2.049-2.499-2.276-4.451-0.928c-0.479,0.33-0.975,0.635-1.433,0.992c-6.716,5.234-10.262,13.403-1.847,20.761
	c1.101,0.963,0.61,1.713,0.306,2.588c-0.695,2.004-0.514,3.76,1.753,4.407c1.894,0.541,2.423,1.622,2.433,3.433
	C23.063,48.951,24.367,50.006,26.604,49.883z M36.098,13.51c1.039,1.387,1.893,2.496,2.716,3.627
	c1.991,2.736,1.986,2.74-0.764,4.498c3.54,2.869,3.891,4.327,2.561,9.877c-0.419,1.75-1.124,3.702,0.56,5.123
	c1.686,1.422,3.954,1.239,5.685,0.486c1.595-0.693,1.754-0.101,2.135,0.992c0.146,0.422,0.146,1.027,0.837,1.037
	C53.266,24.939,48.185,15.18,36.098,13.51z M28.097,14.965c0.907,1.707,1.668,3.151,2.441,4.589c0.674,1.255,1.315,0.936,1.942-0.05
	c0.609-0.96,0.926-2.052,0.342-3.033C31.842,14.827,30.171,14.776,28.097,14.965z"/>
</svg>
