<?xml version="1.0" encoding="utf-8"?>
<!-- Generator: Adobe Illustrator 16.0.0, SVG Export Plug-In . SVG Version: 6.00 Build 0)  -->
<!DOCTYPE svg PUBLIC "-//W3C//DTD SVG 1.1//EN" "http://www.w3.org/Graphics/SVG/1.1/DTD/svg11.dtd">
<svg version="1.1" id="Layer_2" xmlns="http://www.w3.org/2000/svg" xmlns:xlink="http://www.w3.org/1999/xlink" x="0px" y="0px"
	 width="512px" height="512px" viewBox="0 0 512 512" enable-background="new 0 0 512 512" xml:space="preserve">
<g>
	<path fill="#484848" d="M36,504c-15.439,0-28-12.561-28-28V36C8,20.561,20.561,8,36,8h440c15.439,0,28,12.561,28,28v440
		c0,15.439-12.561,28-28,28H36z"/>
	<path fill="#161616" d="M476,16c11,0,20,9,20,20v440c0,11-9,20-20,20H36c-11,0-20-9-20-20V36c0-11,9-20,20-20H476 M476,0H36
		C16.149,0,0,16.149,0,36v440c0,19.851,16.149,36,36,36h440c19.851,0,36-16.149,36-36V36C512,16.149,495.851,0,476,0L476,0z"/>
</g>
<g>
	<g>
		<g>
			<path fill="#161616" d="M318.636,397c-6.636,0-13.184-5.02-14.905-11.429l-47.723-177.623L208.45,385.565
				c-1.717,6.412-8.261,11.435-14.899,11.435h-44.062c-6.695,0-13.167-5.099-14.734-11.607L73.011,128.948
				c-0.852-3.538-0.137-7.095,1.961-9.758S80.361,115,84,115h40.694c6.737,0,13.155,5.153,14.61,11.731l35.208,159.079
				l42.776-159.379c1.72-6.41,8.267-11.431,14.903-11.431h49.862c6.669,0,13.175,5.064,14.811,11.529l40.954,161.808l35.811-161.608
				c1.458-6.577,7.876-11.729,14.612-11.729H428c3.643,0,6.933,1.529,9.024,4.196c2.093,2.667,2.796,6.226,1.929,9.764
				l-62.805,256.459c-1.591,6.494-8.074,11.581-14.76,11.581H318.636z"/>
			<path fill="#161616" d="M428,120c4.4,0,7.144,3.497,6.097,7.771l-62.805,256.459c-1.047,4.273-5.503,7.771-9.903,7.771h-42.753
				c-4.4,0-8.935-3.477-10.076-7.726l-50.483-187.899c-0.57-2.124-1.322-3.187-2.073-3.187c-0.752,0-1.503,1.063-2.072,3.188
				L203.62,384.272c-1.138,4.25-5.669,7.728-10.069,7.728h-44.062c-4.4,0-8.843-3.5-9.873-7.777L77.873,127.778
				C76.843,123.5,79.6,120,84,120h40.694c4.4,0,8.778,3.515,9.729,7.811l37.895,171.216c0.479,2.163,1.15,3.247,1.845,3.247
				c0.685,0,1.391-1.053,1.958-3.163l45.998-171.385c1.141-4.25,5.674-7.727,10.074-7.727h49.862c4.4,0,8.884,3.49,9.963,7.755
				l44.162,174.481c0.537,2.123,1.219,3.184,1.885,3.184c0.673,0,1.33-1.08,1.809-3.238l38.639-174.371
				c0.952-4.296,5.33-7.811,9.73-7.811H428 M428,110h-39.759c-9.136,0-17.517,6.727-19.493,15.646l-31.253,141.037l-35.784-141.382
				C299.504,116.579,291.054,110,282.054,110h-49.862c-8.933,0-17.416,6.506-19.732,15.134L174.98,264.78l-30.793-139.13
				c-1.975-8.922-10.354-15.65-19.492-15.65H84c-5.181,0-9.903,2.222-12.955,6.096c-3.052,3.874-4.107,8.985-2.895,14.022
				l61.744,256.445c2.119,8.8,10.542,15.437,19.595,15.437h44.062c8.936,0,17.417-6.509,19.729-15.141l42.737-159.61l42.886,159.62
				C301.22,395.495,309.703,402,318.636,402h42.753c9.033,0,17.467-6.617,19.616-15.391l62.805-256.46
				c1.234-5.039,0.195-10.157-2.852-14.04C437.912,112.227,433.188,110,428,110L428,110z"/>
		</g>
	</g>
</g>
<g>
	<g>
		<g>
			<path fill="#FFFFFF" d="M149.489,392c-4.4,0-8.843-3.5-9.873-7.777L77.873,127.778C76.843,123.5,79.6,120,84,120h40.694
				c4.4,0,8.778,3.515,9.729,7.811l37.895,171.216c0.951,4.296,2.662,4.334,3.802,0.084l45.998-171.385
				c1.141-4.25,5.674-7.727,10.074-7.727h49.862c4.4,0,8.884,3.49,9.963,7.755l44.162,174.481c1.079,4.266,2.741,4.241,3.693-0.055
				l38.639-174.371c0.952-4.296,5.33-7.811,9.73-7.811H428c4.4,0,7.144,3.497,6.097,7.771l-62.805,256.459
				c-1.047,4.273-5.503,7.771-9.903,7.771h-42.753c-4.4,0-8.935-3.477-10.076-7.726l-50.483-187.899
				c-1.142-4.25-3.007-4.249-4.146,0.001L203.62,384.272c-1.138,4.25-5.669,7.728-10.069,7.728H149.489z"/>
			<path fill="none" stroke="#161616" stroke-width="2" stroke-linejoin="round" stroke-miterlimit="10" d="M149.489,392
				c-4.4,0-8.843-3.5-9.873-7.777L77.873,127.778C76.843,123.5,79.6,120,84,120h40.694c4.4,0,8.778,3.515,9.729,7.811
				l37.895,171.216c0.951,4.296,2.662,4.334,3.802,0.084l45.998-171.385c1.141-4.25,5.674-7.727,10.074-7.727h49.862
				c4.4,0,8.884,3.49,9.963,7.755l44.162,174.481c1.079,4.266,2.741,4.241,3.693-0.055l38.639-174.371
				c0.952-4.296,5.33-7.811,9.73-7.811H428c4.4,0,7.144,3.497,6.097,7.771l-62.805,256.459c-1.047,4.273-5.503,7.771-9.903,7.771
				h-42.753c-4.4,0-8.935-3.477-10.076-7.726l-50.483-187.899c-1.142-4.25-3.007-4.249-4.146,0.001L203.62,384.272
				c-1.138,4.25-5.669,7.728-10.069,7.728H149.489z"/>
		</g>
	</g>
</g>
</svg>
