<?xml version="1.0" encoding="utf-8"?>
<!-- Generator: Adobe Illustrator 16.0.0, SVG Export Plug-In . SVG Version: 6.00 Build 0)  -->
<!DOCTYPE svg PUBLIC "-//W3C//DTD SVG 1.1//EN" "http://www.w3.org/Graphics/SVG/1.1/DTD/svg11.dtd">
<svg version="1.1" id="Layer_4" xmlns="http://www.w3.org/2000/svg" xmlns:xlink="http://www.w3.org/1999/xlink" x="0px" y="0px"
	 width="512px" height="512px" viewBox="0 0 512 512" enable-background="new 0 0 512 512" xml:space="preserve">
<g>
	<path fill="#F0F0F0" d="M128,0H36C16.149,0,0,16.149,0,36v88h16V36c0-11,9-20,20-20h92V0z"/>
	<path fill="#F0F0F0" d="M476,0h-92v16h92c11,0,20,9,20,20v88h16V36C512,16.149,495.851,0,476,0z"/>
</g>
<g>
	<path fill="#F0F0F0" d="M36,496c-11,0-20-9-20-20v-96H0v96c0,19.851,16.149,36,36,36h92v-16H36z"/>
	<path fill="#F0F0F0" d="M496,380v96c0,11-9,20-20,20h-92v16h92c19.851,0,36-16.149,36-36v-96H496z"/>
</g>
</svg>
