<?xml version="1.0" encoding="utf-8"?>
<!-- Generator: Adobe Illustrator 16.0.0, SVG Export Plug-In . SVG Version: 6.00 Build 0)  -->
<!DOCTYPE svg PUBLIC "-//W3C//DTD SVG 1.1//EN" "http://www.w3.org/Graphics/SVG/1.1/DTD/svg11.dtd">
<svg version="1.1" id="Layer_2" xmlns="http://www.w3.org/2000/svg" xmlns:xlink="http://www.w3.org/1999/xlink" x="0px" y="0px"
	 width="1984px" height="512px" viewBox="0 0 1984 512" enable-background="new 0 0 1984 512" xml:space="preserve">
<g>
	<g>
		<g>
			<path fill="#161616" d="M551.742,375c-15.75,0-30.979-3.566-45.263-10.599c-14.482-7.13-25.657-17.74-33.211-31.537
				C465.791,319.209,462,302.437,462,283.014c0-15.001,3.784-29.708,11.246-43.713c7.53-14.128,18.352-25.066,32.165-32.513
				c13.698-7.385,29.181-11.13,46.019-11.13c26.076,0,47.786,8.524,64.525,25.335c16.733,16.811,25.217,38.301,25.217,63.873
				c0,25.779-8.562,47.476-25.447,64.485C598.832,366.37,577.305,375,551.742,375z M551.586,239.007
				c-10.364,0-18.844,3.81-25.925,11.648c-7.088,7.845-10.682,19.511-10.682,34.674c0,15.162,3.594,26.828,10.682,34.674
				c7.081,7.838,15.561,11.648,25.925,11.648c10.358,0,18.81-3.807,25.838-11.639c7.042-7.849,10.612-19.622,10.612-34.992
				c0-14.961-3.571-26.527-10.613-34.376C570.396,242.813,561.944,239.007,551.586,239.007z"/>
			<path d="M551.43,199.658c25.091,0,45.655,8.054,61.69,24.158c16.033,16.107,24.052,36.456,24.052,61.051
				c0,24.802-8.097,45.358-24.286,61.667C596.695,362.846,576.313,371,551.742,371c-15.203,0-29.701-3.396-43.496-10.188
				c-13.797-6.792-24.286-16.749-31.47-29.869C469.592,317.822,466,301.846,466,283.014c0-14.406,3.592-28.35,10.776-41.833
				c7.184-13.479,17.36-23.772,30.533-30.873C520.479,203.208,535.187,199.658,551.43,199.658 M551.586,335.651
				c11.452,0,21.057-4.322,28.815-12.967c7.755-8.645,11.635-21.198,11.635-37.664c0-16.054-3.88-28.403-11.635-37.047
				c-7.758-8.644-17.363-12.966-28.815-12.966c-11.455,0-21.084,4.322-28.893,12.966s-11.713,21.097-11.713,37.356
				c0,16.261,3.904,28.711,11.713,37.355S540.131,335.651,551.586,335.651 M551.43,191.658c-17.507,0-33.629,3.906-47.917,11.609
				c-14.519,7.827-25.89,19.317-33.796,34.152C461.942,252.009,458,267.35,458,283.014c0,20.102,3.957,37.521,11.759,51.771
				c7.958,14.533,19.718,25.705,34.954,33.205c14.838,7.306,30.661,11.01,47.029,11.01c26.668,0,49.15-9.027,66.821-26.831
				c17.656-17.786,26.608-40.43,26.608-67.303c0-26.669-8.876-49.108-26.382-66.694C601.271,200.578,578.608,191.658,551.43,191.658
				L551.43,191.658z M551.586,327.651c-9.168,0-16.678-3.379-22.957-10.329c-6.403-7.089-9.65-17.853-9.65-31.993
				c0-14.142,3.247-24.905,9.649-31.993c6.279-6.95,13.789-10.329,22.957-10.329c9.157,0,16.635,3.372,22.861,10.31
				c6.362,7.092,9.589,17.759,9.589,31.704c0,14.354-3.227,25.229-9.59,32.321C568.221,324.279,560.743,327.651,551.586,327.651
				L551.586,327.651z"/>
		</g>
		<g>
			<path fill="#161616" d="M716.511,375c-8.404,0-16.117-1.427-22.924-4.24c-7.027-2.902-12.312-6.793-15.709-11.563
				c-3.314-4.656-5.623-10.91-6.86-18.587c-0.975-5.235-1.456-15.473-1.456-31.2v-63.47c0-2.206-1.794-4-4-4h-4.147
				c-6.617,0-12-5.383-12-12v-18.577c0-6.617,5.383-12,12-12h4.147c2.206,0,4-1.794,4-4v-16.57c0-5.784,3.928-12.572,8.943-15.455
				l30.17-17.342c1.691-0.972,3.396-1.465,5.067-1.465c4.629,0,7.862,3.679,7.862,8.946v41.886c0,2.206,1.794,4,4,4h13.986
				c6.617,0,12,5.383,12,12v18.577c0,6.617-5.383,12-12,12h-13.986c-2.206,0-4,1.794-4,4v50.067c0,4.378,0.048,11.531,0.107,15.945
				c0.08,5.927,0.344,13.144,0.632,14.469c0.328,1.27,1.073,2.291,2.338,3.188c1.35,0.959,3.019,1.424,5.105,1.424
				c3.577,0,9.059-1.322,16.292-3.93c0.44-0.159,0.899-0.237,1.356-0.237c0.738,0,1.472,0.204,2.114,0.604
				c1.04,0.647,1.726,1.735,1.861,2.953l2.862,25.699c0.704,6.321-3.519,12.695-9.615,14.512
				C744.059,370.813,729.85,375,716.511,375z"/>
			<path d="M713.741,148.53c2.284,0,3.862,1.817,3.862,4.946v41.886c0,4.4,3.6,8,8,8h13.986c4.4,0,8,3.6,8,8v18.577c0,4.4-3.6,8-8,8
				h-13.986c-4.4,0-8,3.6-8,8v50.067c0,4.4,0.049,11.6,0.108,15.999c0,0,0.178,13.176,0.751,15.387
				c0.571,2.214,1.874,4.04,3.904,5.479c2.03,1.442,4.502,2.161,7.418,2.161c4.061,0,9.942-1.389,17.648-4.167l2.862,25.699
				c0.487,4.373-2.564,8.979-6.781,10.235c0,0-14.095,4.199-27.004,4.199c-7.914,0-15.047-1.313-21.396-3.937
				c-6.353-2.624-11.011-6.02-13.978-10.188s-5.025-9.802-6.169-16.903c-0.937-5.04-1.405-15.229-1.405-30.563v-63.47
				c0-4.4-3.6-8-8-8h-4.147c-4.4,0-8-3.6-8-8v-18.577c0-4.4,3.6-8,8-8h4.147c4.4,0,8-3.6,8-8v-16.57c0-4.4,3.121-9.794,6.936-11.987
				l30.17-17.342C711.77,148.83,712.813,148.53,713.741,148.53 M713.741,140.53c-2.379,0-4.755,0.672-7.061,1.997l-30.17,17.342
				c-6.344,3.647-10.949,11.605-10.949,18.923v16.57h-4.147c-8.822,0-16,7.178-16,16v18.577c0,8.822,7.178,16,16,16h4.147v63.47
				c0,15.883,0.498,26.329,1.522,31.928c1.34,8.248,3.875,15.037,7.536,20.179c3.839,5.394,9.708,9.747,17.441,12.941
				c7.293,3.015,15.52,4.543,24.451,4.543c13.916,0,28.667-4.347,29.289-4.532c7.892-2.351,13.36-10.604,12.448-18.788
				l-2.862-25.699c-0.271-2.435-1.643-4.61-3.722-5.905c-1.284-0.8-2.752-1.209-4.229-1.209c-0.914,0-1.832,0.156-2.713,0.475
				c-8.912,3.213-13.183,3.692-14.935,3.692c-1.824,0-2.547-0.514-2.785-0.683c-0.519-0.368-0.681-0.632-0.749-0.816
				c-0.238-1.736-0.469-8.333-0.541-13.636c-0.06-4.399-0.107-11.528-0.107-15.892v-50.067h13.986c8.822,0,16-7.178,16-16v-18.577
				c0-8.822-7.178-16-16-16h-13.986v-41.886C725.604,145.975,720.615,140.53,713.741,140.53L713.741,140.53z"/>
		</g>
		<g>
			<path fill="#161616" d="M786.045,371.295c-6.617,0-12-5.383-12-12V211.362c0-6.617,5.383-12,12-12h27.886c6.617,0,12,5.383,12,12
				v147.933c0,6.617-5.383,12-12,12H786.045z M786.045,185.134c-6.617,0-12-5.383-12-12V149c0-6.617,5.383-12,12-12h27.886
				c6.617,0,12,5.383,12,12v24.134c0,6.617-5.383,12-12,12H786.045z"/>
			<path d="M813.931,141c4.4,0,8,3.6,8,8v24.134c0,4.4-3.6,8-8,8h-27.886c-4.4,0-8-3.6-8-8V149c0-4.4,3.6-8,8-8H813.931
				 M813.931,203.362c4.4,0,8,3.6,8,8v147.933c0,4.4-3.6,8-8,8h-27.886c-4.4,0-8-3.6-8-8V211.362c0-4.4,3.6-8,8-8H813.931
				 M813.931,133h-27.886c-8.822,0-16,7.178-16,16v24.134c0,8.822,7.178,16,16,16h27.886c8.822,0,16-7.178,16-16V149
				C829.931,140.178,822.753,133,813.931,133L813.931,133z M813.931,195.362h-27.886c-8.822,0-16,7.178-16,16v147.933
				c0,8.822,7.178,16,16,16h27.886c8.822,0,16-7.178,16-16V211.362C829.931,202.54,822.753,195.362,813.931,195.362L813.931,195.362
				z"/>
		</g>
		<g>
			<path fill="#161616" d="M942.501,375c-15.75,0-30.979-3.566-45.263-10.599c-14.482-7.129-25.657-17.739-33.211-31.537
				c-7.477-13.655-11.268-30.428-11.268-49.851c0-15.001,3.784-29.708,11.246-43.713c7.53-14.129,18.352-25.067,32.166-32.513
				c13.697-7.385,29.18-11.13,46.019-11.13c26.076,0,47.786,8.524,64.525,25.335c16.732,16.811,25.217,38.301,25.217,63.873
				c0,25.777-8.562,47.474-25.446,64.484C989.591,366.37,968.064,375,942.501,375z M942.345,239.007
				c-10.364,0-18.844,3.81-25.925,11.648c-7.088,7.846-10.682,19.512-10.682,34.674c0,15.161,3.594,26.827,10.682,34.674
				c7.081,7.838,15.561,11.648,25.925,11.648c10.358,0,18.81-3.807,25.838-11.639c7.042-7.85,10.612-19.623,10.612-34.992
				c0-14.96-3.571-26.526-10.613-34.376C961.155,242.813,952.703,239.007,942.345,239.007z"/>
			<path d="M942.189,199.658c25.09,0,45.655,8.054,61.69,24.158c16.032,16.107,24.052,36.456,24.052,61.051
				c0,24.802-8.098,45.358-24.285,61.667C987.454,362.846,967.073,371,942.501,371c-15.204,0-29.701-3.396-43.496-10.188
				c-13.798-6.792-24.286-16.749-31.47-29.869c-7.184-13.121-10.776-29.098-10.776-47.93c0-14.406,3.592-28.35,10.776-41.833
				c7.184-13.479,17.359-23.772,30.533-30.873C911.238,203.208,925.946,199.658,942.189,199.658 M942.345,335.651
				c11.452,0,21.057-4.322,28.815-12.967c7.754-8.645,11.635-21.198,11.635-37.664c0-16.054-3.881-28.403-11.635-37.047
				c-7.758-8.644-17.364-12.966-28.815-12.966c-11.456,0-21.084,4.322-28.893,12.966c-7.809,8.644-11.713,21.097-11.713,37.356
				c0,16.261,3.905,28.711,11.713,37.355C921.261,331.329,930.89,335.651,942.345,335.651 M942.189,191.658
				c-17.508,0-33.63,3.906-47.917,11.609c-14.518,7.825-25.889,19.315-33.796,34.151c-7.774,14.591-11.716,29.931-11.716,45.595
				c0,20.102,3.957,37.521,11.759,51.771c7.958,14.534,19.718,25.705,34.954,33.205c14.837,7.306,30.661,11.01,47.029,11.01
				c26.667,0,49.15-9.027,66.823-26.831c17.655-17.787,26.607-40.432,26.607-67.303c0-26.668-8.876-49.107-26.382-66.694
				C992.031,200.578,969.368,191.658,942.189,191.658L942.189,191.658z M942.345,327.651c-9.168,0-16.678-3.379-22.957-10.329
				c-6.403-7.089-9.65-17.853-9.65-31.993s3.247-24.905,9.65-31.993c6.279-6.95,13.788-10.329,22.957-10.329
				c9.157,0,16.635,3.373,22.862,10.31c6.362,7.092,9.589,17.759,9.589,31.704c0,14.354-3.227,25.228-9.59,32.322
				C958.98,324.279,951.502,327.651,942.345,327.651L942.345,327.651z"/>
		</g>
		<g>
			<path fill="#161616" d="M1177.273,371.295c-6.617,0-12-5.383-12-12v-67.664c0-4.386-0.114-11.504-0.255-15.867
				c-0.256-7.935-1.111-21.771-2.319-25.122c-1.597-4.426-4.093-7.753-7.63-10.171c-3.571-2.438-7.814-3.625-12.971-3.625
				c-6.842,0-12.797,1.792-18.207,5.479c-5.342,3.642-8.897,8.322-10.87,14.309c-2.095,6.349-3.156,18.6-3.156,36.413v66.248
				c0,6.617-5.383,12-12,12h-27.887c-6.617,0-12-5.383-12-12V211.362c0-6.617,5.383-12,12-12h24.763c6.617,0,12,5.383,12,12v7.438
				c3.93-3.246,28.916-23.143,50.663-23.143c10.179,0,19.643,1.849,28.129,5.497c8.611,3.705,15.268,8.561,19.786,14.433
				c4.438,5.777,7.569,12.414,9.312,19.728c1.702,7.171,2.529,17.017,2.529,30.101v93.879c0,6.617-5.383,12-12,12H1177.273z"/>
			<path d="M1157.404,199.658c9.683,0,18.53,1.725,26.55,5.171c8.016,3.449,14.079,7.848,18.195,13.198
				c4.111,5.353,6.973,11.423,8.59,18.215c1.612,6.792,2.421,16.517,2.421,29.174v93.879c0,4.4-3.6,8-8,8h-27.887c-4.4,0-8-3.6-8-8
				v-67.664c0-4.4-0.115-11.598-0.257-15.996c0,0-0.681-21.151-2.555-26.35c-1.874-5.195-4.919-9.235-9.136-12.117
				c-4.217-2.88-9.293-4.322-15.228-4.322c-7.603,0-14.423,2.06-20.46,6.174c-6.04,4.118-10.179,9.571-12.416,16.362
				c-2.241,6.792-3.357,19.348-3.357,37.665v66.248c0,4.4-3.6,8-8,8h-27.887c-4.4,0-8-3.6-8-8V211.362c0-4.4,3.6-8,8-8h24.763
				c4.4,0,8,3.6,8,8v8.081c0,2.809,1.118,4.341,2.799,4.341c0.952,0,2.085-0.492,3.297-1.522
				C1108.837,222.262,1135.434,199.658,1157.404,199.658 M1157.404,191.658c-17.47,0-36.606,11.828-46.676,19.061
				c-0.339-8.525-7.38-15.356-15.987-15.356h-24.763c-8.822,0-16,7.178-16,16v147.933c0,8.822,7.178,16,16,16h27.887
				c8.822,0,16-7.178,16-16v-66.248c0-21.657,1.606-31.073,2.955-35.158c1.688-5.122,4.737-9.131,9.324-12.259
				c4.724-3.219,9.942-4.784,15.954-4.784c4.325,0,7.83,0.958,10.716,2.929c2.816,1.925,4.82,4.617,6.122,8.225
				c0.867,2.542,1.779,14.409,2.084,23.893c0.14,4.327,0.253,11.388,0.253,15.738v67.664c0,8.822,7.178,16,16,16h27.887
				c8.822,0,16-7.178,16-16v-93.879c0-13.399-0.862-23.546-2.637-31.022c-1.875-7.872-5.248-15.016-10.029-21.24
				c-4.943-6.425-12.135-11.697-21.378-15.673C1178.124,193.616,1168.129,191.658,1157.404,191.658L1157.404,191.658z"/>
		</g>
		<g>
			<path fill="#161616" d="M1266.139,371.295c-6.617,0-12-5.383-12-12V149c0-6.617,5.383-12,12-12h75.521
				c4.439,0,11.659,0.085,16.093,0.19c0.977,0.023,24.017,0.583,33.096,2.103c9.428,1.582,17.996,4.935,25.47,9.966
				c7.489,5.045,13.805,11.835,18.772,20.181c5.037,8.463,7.591,18.059,7.591,28.52c0,11.34-3.136,21.892-9.318,31.361
				c-4.479,6.861-10.173,12.529-16.989,16.927c10.595,4.382,19.138,10.708,25.469,18.878c8.019,10.349,12.084,22.65,12.084,36.564
				c0,10.867-2.585,21.568-7.682,31.807c-5.124,10.29-12.234,18.638-21.137,24.813c-8.897,6.172-19.949,10.014-32.848,11.418
				c-7.923,0.848-26.291,1.359-56.161,1.566c-0.009,0-0.019,0-0.027,0H1266.139z M1312.368,272.658c-2.206,0-4,1.794-4,4v44.51
				c0,2.206,1.794,4,4,4h26.793c4.367,0,11.515-0.061,15.932-0.135c7.288-0.125,19.968-0.553,22.962-1.172
				c0.034-0.007,0.068-0.014,0.104-0.021c6.028-1.082,10.78-3.625,14.527-7.774c3.667-4.063,5.45-9.473,5.45-16.536
				c0-6.001-1.396-10.903-4.27-14.987c-2.863-4.063-6.944-6.963-12.473-8.86c-4.023-1.38-14.178-3.024-39.699-3.024H1312.368z
				 M1312.368,182.665c-2.206,0-4,1.794-4,4v36.329c0,2.206,1.794,4,4,4h14.299c4.422,0,11.584-0.031,15.965-0.07
				c5.838-0.051,21.735-0.271,25.145-0.674c6.972-0.817,12.462-3.164,16.32-6.977c3.771-3.728,5.605-8.579,5.605-14.83
				c0-6.035-1.583-10.743-4.841-14.394c-3.219-3.604-8.234-5.839-14.907-6.642c-4.393-0.492-17.537-0.743-39.036-0.743H1312.368z"/>
			<path d="M1341.66,141c4.4,0,11.599,0.085,15.998,0.189c0,0,23.628,0.559,32.53,2.049c8.901,1.493,16.867,4.607,23.896,9.339
				c7.027,4.734,12.884,11.037,17.569,18.909c4.686,7.873,7.028,16.698,7.028,26.474c0,10.601-2.89,20.325-8.668,29.174
				c-5.778,8.852-13.615,15.489-23.505,19.913c13.95,4.014,24.677,10.858,32.173,20.53c7.496,9.675,11.245,21.046,11.245,34.114
				c0,10.292-2.421,20.299-7.263,30.023s-11.455,17.496-19.835,23.309c-8.383,5.815-18.718,9.392-31.001,10.729
				c-7.707,0.824-26.293,1.339-55.756,1.543h-69.934c-4.4,0-8-3.6-8-8V149c0-4.4,3.6-8,8-8H1341.66 M1312.368,230.993h14.299
				c4.4,0,11.6-0.031,16-0.07c0,0,21.205-0.186,25.578-0.702c7.91-0.926,14.134-3.628,18.663-8.104
				c4.529-4.477,6.794-10.367,6.794-17.675c0-6.997-1.952-12.682-5.856-17.057c-3.904-4.372-9.711-7.023-17.414-7.95
				c-4.584-0.513-17.754-0.771-39.514-0.771h-18.55c-4.4,0-8,3.6-8,8v36.329C1304.368,227.393,1307.968,230.993,1312.368,230.993
				 M1312.368,329.168h26.793c4.4,0,11.6-0.062,15.999-0.136c0,0,19.227-0.327,23.705-1.254c6.872-1.234,12.467-4.245,16.789-9.03
				c4.318-4.785,6.481-11.191,6.481-19.218c0-6.792-1.667-12.554-4.998-17.289c-3.334-4.731-8.148-8.181-14.446-10.342
				c-6.302-2.161-19.967-3.241-40.997-3.241h-29.326c-4.4,0-8,3.6-8,8v44.51C1304.368,325.568,1307.968,329.168,1312.368,329.168
				 M1341.66,133h-75.521c-8.822,0-16,7.178-16,16v210.295c0,8.822,7.178,16,16,16h69.934c0.019,0,0.037,0,0.056,0
				c30.004-0.208,48.502-0.728,56.551-1.588c13.584-1.479,25.258-5.553,34.71-12.11c9.461-6.563,17.01-15.416,22.437-26.316
				c5.376-10.797,8.102-22.098,8.102-33.589c0-14.822-4.348-27.948-12.921-39.014c-5.456-7.04-12.42-12.787-20.805-17.186
				c4.834-3.96,9.018-8.632,12.512-13.985c6.614-10.13,9.969-21.417,9.969-33.547c0-11.191-2.743-21.475-8.154-30.565
				c-5.271-8.857-11.992-16.075-19.974-21.452c-7.952-5.354-17.05-8.917-27.042-10.594c-9.359-1.567-32.677-2.134-33.664-2.157
				C1353.388,133.086,1346.126,133,1341.66,133L1341.66,133z M1312.368,222.993h-0.002l0.002-36.329h18.55
				c26.498,0,35.616,0.39,38.592,0.718c5.66,0.686,9.822,2.479,12.369,5.332c2.572,2.883,3.823,6.72,3.823,11.729
				c0,5.126-1.445,9.047-4.417,11.985c-3.254,3.215-7.824,5.128-13.971,5.848c-2.877,0.34-16.687,0.578-24.718,0.648
				c-4.374,0.038-11.52,0.069-15.93,0.069H1312.368L1312.368,222.993z M1312.368,321.168h-0.002l0.002-44.51h29.326
				c26.287,0,35.344,1.76,38.401,2.809c4.704,1.614,8.14,4.029,10.502,7.383c2.38,3.382,3.538,7.531,3.538,12.681
				c0,6.029-1.446,10.562-4.421,13.858c-3.128,3.463-7.141,5.596-12.264,6.516c-0.069,0.013-0.139,0.025-0.207,0.04
				c-2.313,0.479-13.334,0.938-22.22,1.089c-4.397,0.074-11.514,0.135-15.863,0.135H1312.368L1312.368,321.168z"/>
		</g>
		<g>
			<path fill="#161616" d="M1564.249,375c-15.75,0-30.979-3.566-45.262-10.599c-14.482-7.129-25.657-17.739-33.213-31.537
				c-7.477-13.656-11.268-30.429-11.268-49.851c0-15,3.784-29.708,11.246-43.713c7.531-14.129,18.353-25.068,32.166-32.513
				c13.697-7.385,29.18-11.13,46.018-11.13c26.076,0,47.785,8.524,64.525,25.335c16.732,16.811,25.217,38.301,25.217,63.873
				c0,25.777-8.562,47.474-25.446,64.484C1611.339,366.37,1589.812,375,1564.249,375z M1564.093,239.007
				c-10.364,0-18.844,3.81-25.925,11.647c-7.088,7.846-10.682,19.512-10.682,34.675c0,15.162,3.594,26.828,10.682,34.674
				c7.08,7.838,15.561,11.648,25.925,11.648c10.357,0,18.81-3.807,25.839-11.639c7.041-7.85,10.611-19.623,10.611-34.992
				c0-14.96-3.57-26.526-10.612-34.376C1582.902,242.814,1574.45,239.007,1564.093,239.007z"/>
			<path d="M1563.937,199.658c25.091,0,45.655,8.054,61.69,24.158c16.032,16.107,24.052,36.456,24.052,61.051
				c0,24.802-8.098,45.358-24.285,61.667C1609.201,362.846,1588.82,371,1564.249,371c-15.204,0-29.701-3.396-43.495-10.188
				c-13.799-6.792-24.286-16.749-31.471-29.869c-7.184-13.121-10.776-29.098-10.776-47.93c0-14.406,3.593-28.35,10.776-41.833
				c7.185-13.479,17.359-23.772,30.533-30.873C1532.986,203.208,1547.694,199.658,1563.937,199.658 M1564.093,335.651
				c11.452,0,21.057-4.322,28.815-12.967c7.754-8.645,11.635-21.198,11.635-37.664c0-16.054-3.881-28.403-11.635-37.047
				c-7.759-8.644-17.363-12.966-28.815-12.966c-11.455,0-21.084,4.322-28.893,12.966c-7.81,8.644-11.714,21.097-11.714,37.356
				c0,16.261,3.904,28.711,11.714,37.355C1543.009,331.329,1552.638,335.651,1564.093,335.651 M1563.937,191.658
				c-17.508,0-33.629,3.906-47.917,11.609c-14.518,7.825-25.889,19.315-33.796,34.152c-7.775,14.592-11.717,29.932-11.717,45.595
				c0,20.101,3.956,37.52,11.759,51.771c7.959,14.534,19.72,25.706,34.955,33.205c14.837,7.306,30.66,11.01,47.028,11.01
				c26.667,0,49.149-9.027,66.822-26.831c17.655-17.787,26.607-40.432,26.607-67.303c0-26.668-8.876-49.107-26.382-66.694
				C1613.778,200.578,1591.115,191.658,1563.937,191.658L1563.937,191.658z M1564.093,327.651c-9.169,0-16.678-3.379-22.956-10.329
				c-6.403-7.089-9.65-17.853-9.65-31.993c0-14.142,3.247-24.905,9.65-31.993c6.278-6.951,13.787-10.33,22.956-10.33
				c9.156,0,16.635,3.373,22.862,10.31c6.361,7.092,9.588,17.759,9.588,31.704c0,14.354-3.227,25.228-9.59,32.322
				C1580.728,324.279,1573.249,327.651,1564.093,327.651L1564.093,327.651z"/>
		</g>
		<g>
			<path fill="#161616" d="M1790.118,371.295c-5.783,0-12.559-3.633-15.759-8.451l-24.881-37.457
				c-0.472-0.71-0.924-0.968-1.112-0.968s-0.642,0.257-1.115,0.963l-25.137,37.496c-3.218,4.799-10,8.417-15.777,8.417h-35.383
				c-3.645,0-6.504-1.487-7.845-4.08s-0.902-5.786,1.204-8.76l50.569-71.38c1.555-2.195,1.538-6.184-0.036-8.366l-47.959-66.518
				c-2.137-2.962-2.6-6.15-1.271-8.745c1.328-2.595,4.185-4.083,7.836-4.083h37.569c5.797,0,12.554,3.663,15.718,8.52l20.629,31.667
				c0.469,0.719,0.922,0.979,1.112,0.979c0.165,0,0.613-0.199,1.131-0.954l21.87-31.879c3.262-4.751,10.064-8.334,15.825-8.334
				h35.538c3.654,0,6.51,1.489,7.835,4.085c1.324,2.596,0.855,5.782-1.288,8.741l-46.838,64.685
				c-1.575,2.175-1.592,6.146-0.036,8.334l52.104,73.251c2.113,2.971,2.558,6.162,1.22,8.756s-4.196,4.081-7.843,4.081H1790.118z"/>
			<path d="M1822.846,203.362c4.4,0,5.889,2.916,3.308,6.479l-46.839,64.686c-2.581,3.563-2.605,9.413-0.056,12.998l52.104,73.251
				c2.55,3.585,1.037,6.519-3.363,6.519h-37.882c-4.4,0-9.992-2.999-12.427-6.664l-24.881-37.457
				c-1.22-1.836-2.832-2.755-4.444-2.755c-1.606,0-3.215,0.911-4.438,2.735l-25.137,37.496c-2.45,3.654-8.055,6.645-12.455,6.645
				h-35.383c-4.4,0-5.919-2.938-3.376-6.528l50.568-71.379c2.543-3.591,2.519-9.448-0.055-13.018l-47.96-66.519
				c-2.573-3.569-1.079-6.489,3.321-6.489h37.569c4.4,0,9.965,3.017,12.366,6.703l20.629,31.667
				c1.213,1.863,2.835,2.796,4.464,2.796c1.595,0,3.196-0.895,4.429-2.69l21.871-31.88c2.49-3.628,8.126-6.597,12.526-6.597
				H1822.846 M1822.846,195.362h-35.538c-7.075,0-15.117,4.235-19.122,10.069l-19.629,28.612l-18.465-28.345
				c-3.901-5.989-11.921-10.336-19.069-10.336h-37.569c-5.206,0-9.36,2.282-11.397,6.261c-2.036,3.979-1.458,8.684,1.587,12.907
				l47.96,66.519c0.574,0.796,0.583,2.914,0.016,3.716l-50.567,71.377c-3.002,4.238-3.546,8.943-1.494,12.911
				c2.052,3.967,6.206,6.242,11.397,6.242h35.383c7.108,0,15.141-4.285,19.1-10.189l22.916-34.184l22.675,34.136
				c3.94,5.932,11.97,10.237,19.091,10.237H1828c5.195,0,9.35-2.277,11.397-6.247s1.496-8.675-1.515-12.908l-52.105-73.251
				c-0.563-0.791-0.553-2.883,0.016-3.669l46.84-64.686c3.056-4.219,3.643-8.923,1.61-12.905
				C1832.21,197.646,1828.056,195.362,1822.846,195.362L1822.846,195.362z"/>
		</g>
	</g>
</g>
<g>
	<g>
		<g>
			<path fill="#242424" d="M466,283.014c0-14.406,3.592-28.35,10.776-41.833c7.184-13.48,17.36-23.772,30.533-30.873
				c13.17-7.101,27.878-10.651,44.121-10.651c25.091,0,45.655,8.053,61.69,24.158c16.033,16.107,24.052,36.456,24.052,61.051
				c0,24.802-8.097,45.358-24.286,61.667C596.695,362.846,576.313,371,551.742,371c-15.203,0-29.701-3.396-43.496-10.188
				c-13.797-6.792-24.286-16.749-31.47-29.869C469.592,317.822,466,301.846,466,283.014z M510.979,285.329
				c0,16.261,3.904,28.711,11.713,37.355s17.438,12.967,28.893,12.967c11.452,0,21.057-4.322,28.815-12.967
				c7.755-8.645,11.635-21.198,11.635-37.664c0-16.054-3.88-28.403-11.635-37.047c-7.758-8.644-17.363-12.966-28.815-12.966
				c-11.455,0-21.084,4.322-28.893,12.966S510.979,269.07,510.979,285.329z"/>
			<path fill="none" stroke="#000000" stroke-width="2" stroke-linejoin="round" stroke-miterlimit="10" d="M466,283.014
				c0-14.406,3.592-28.35,10.776-41.833c7.184-13.48,17.36-23.772,30.533-30.873c13.17-7.101,27.878-10.651,44.121-10.651
				c25.091,0,45.655,8.053,61.69,24.158c16.033,16.107,24.052,36.456,24.052,61.051c0,24.802-8.097,45.358-24.286,61.667
				C596.695,362.846,576.313,371,551.742,371c-15.203,0-29.701-3.396-43.496-10.188c-13.797-6.792-24.286-16.749-31.47-29.869
				C469.592,317.822,466,301.846,466,283.014z M510.979,285.329c0,16.261,3.904,28.711,11.713,37.355s17.438,12.967,28.893,12.967
				c11.452,0,21.057-4.322,28.815-12.967c7.755-8.645,11.635-21.198,11.635-37.664c0-16.054-3.88-28.403-11.635-37.047
				c-7.758-8.644-17.363-12.966-28.815-12.966c-11.455,0-21.084,4.322-28.893,12.966S510.979,269.07,510.979,285.329z"/>
		</g>
		<g>
			<path fill="#242424" d="M739.59,203.362c4.4,0,8,3.6,8,8v18.577c0,4.4-3.6,8-8,8h-13.986c-4.4,0-8,3.6-8,8v50.067
				c0,4.4,0.049,11.6,0.108,15.999c0,0,0.178,13.176,0.751,15.387c0.571,2.214,1.874,4.04,3.904,5.479
				c2.03,1.442,4.502,2.161,7.418,2.161c4.061,0,9.942-1.389,17.648-4.167l2.862,25.699c0.487,4.373-2.564,8.979-6.781,10.235
				c0,0-14.095,4.199-27.004,4.199c-7.914,0-15.047-1.313-21.396-3.937c-6.353-2.624-11.011-6.02-13.978-10.188
				s-5.025-9.802-6.169-16.903c-0.937-5.04-1.405-15.229-1.405-30.563v-63.47c0-4.4-3.6-8-8-8h-4.147c-4.4,0-8-3.6-8-8v-18.577
				c0-4.4,3.6-8,8-8h4.147c4.4,0,8-3.6,8-8v-16.57c0-4.4,3.121-9.794,6.936-11.987l30.17-17.342
				c3.815-2.193,6.936-0.387,6.936,4.013v41.886c0,4.4,3.6,8,8,8H739.59z"/>
			<path fill="none" stroke="#000000" stroke-width="2" stroke-linejoin="round" stroke-miterlimit="10" d="M739.59,203.362
				c4.4,0,8,3.6,8,8v18.577c0,4.4-3.6,8-8,8h-13.986c-4.4,0-8,3.6-8,8v50.067c0,4.4,0.049,11.6,0.108,15.999
				c0,0,0.178,13.176,0.751,15.387c0.571,2.214,1.874,4.04,3.904,5.479c2.03,1.442,4.502,2.161,7.418,2.161
				c4.061,0,9.942-1.389,17.648-4.167l2.862,25.699c0.487,4.373-2.564,8.979-6.781,10.235c0,0-14.095,4.199-27.004,4.199
				c-7.914,0-15.047-1.313-21.396-3.937c-6.353-2.624-11.011-6.02-13.978-10.188s-5.025-9.802-6.169-16.903
				c-0.937-5.04-1.405-15.229-1.405-30.563v-63.47c0-4.4-3.6-8-8-8h-4.147c-4.4,0-8-3.6-8-8v-18.577c0-4.4,3.6-8,8-8h4.147
				c4.4,0,8-3.6,8-8v-16.57c0-4.4,3.121-9.794,6.936-11.987l30.17-17.342c3.815-2.193,6.936-0.387,6.936,4.013v41.886
				c0,4.4,3.6,8,8,8H739.59z"/>
		</g>
		<g>
			<path fill="#242424" d="M786.045,181.134c-4.4,0-8-3.6-8-8V149c0-4.4,3.6-8,8-8h27.886c4.4,0,8,3.6,8,8v24.134c0,4.4-3.6,8-8,8
				H786.045z M786.045,367.295c-4.4,0-8-3.6-8-8V211.362c0-4.4,3.6-8,8-8h27.886c4.4,0,8,3.6,8,8v147.933c0,4.4-3.6,8-8,8H786.045z"
				/>
			<path fill="none" stroke="#000000" stroke-width="2" stroke-linejoin="round" stroke-miterlimit="10" d="M786.045,181.134
				c-4.4,0-8-3.6-8-8V149c0-4.4,3.6-8,8-8h27.886c4.4,0,8,3.6,8,8v24.134c0,4.4-3.6,8-8,8H786.045z M786.045,367.295
				c-4.4,0-8-3.6-8-8V211.362c0-4.4,3.6-8,8-8h27.886c4.4,0,8,3.6,8,8v147.933c0,4.4-3.6,8-8,8H786.045z"/>
		</g>
		<g>
			<path fill="#242424" d="M856.759,283.014c0-14.406,3.592-28.35,10.776-41.833c7.184-13.48,17.359-23.772,30.533-30.873
				c13.169-7.101,27.877-10.651,44.121-10.651c25.09,0,45.655,8.053,61.69,24.158c16.032,16.107,24.052,36.456,24.052,61.051
				c0,24.802-8.098,45.358-24.285,61.667C987.454,362.846,967.073,371,942.501,371c-15.204,0-29.701-3.396-43.496-10.188
				c-13.798-6.792-24.286-16.749-31.47-29.869C860.352,317.822,856.759,301.846,856.759,283.014z M901.739,285.329
				c0,16.261,3.905,28.711,11.713,37.355c7.809,8.645,17.438,12.967,28.893,12.967c11.452,0,21.057-4.322,28.815-12.967
				c7.754-8.645,11.635-21.198,11.635-37.664c0-16.054-3.881-28.403-11.635-37.047c-7.758-8.644-17.364-12.966-28.815-12.966
				c-11.456,0-21.084,4.322-28.893,12.966C905.644,256.617,901.739,269.07,901.739,285.329z"/>
			<path fill="none" stroke="#000000" stroke-width="2" stroke-linejoin="round" stroke-miterlimit="10" d="M856.759,283.014
				c0-14.406,3.592-28.35,10.776-41.833c7.184-13.48,17.359-23.772,30.533-30.873c13.169-7.101,27.877-10.651,44.121-10.651
				c25.09,0,45.655,8.053,61.69,24.158c16.032,16.107,24.052,36.456,24.052,61.051c0,24.802-8.098,45.358-24.285,61.667
				C987.454,362.846,967.073,371,942.501,371c-15.204,0-29.701-3.396-43.496-10.188c-13.798-6.792-24.286-16.749-31.47-29.869
				C860.352,317.822,856.759,301.846,856.759,283.014z M901.739,285.329c0,16.261,3.905,28.711,11.713,37.355
				c7.809,8.645,17.438,12.967,28.893,12.967c11.452,0,21.057-4.322,28.815-12.967c7.754-8.645,11.635-21.198,11.635-37.664
				c0-16.054-3.881-28.403-11.635-37.047c-7.758-8.644-17.364-12.966-28.815-12.966c-11.456,0-21.084,4.322-28.893,12.966
				C905.644,256.617,901.739,269.07,901.739,285.329z"/>
		</g>
		<g>
			<path fill="#242424" d="M1213.16,359.295c0,4.4-3.6,8-8,8h-27.887c-4.4,0-8-3.6-8-8v-67.664c0-4.4-0.115-11.598-0.257-15.996
				c0,0-0.681-21.152-2.555-26.35c-1.874-5.195-4.919-9.235-9.136-12.117c-4.217-2.88-9.293-4.322-15.228-4.322
				c-7.603,0-14.423,2.06-20.46,6.174c-6.04,4.117-10.179,9.571-12.416,16.362c-2.241,6.792-3.357,19.348-3.357,37.665v66.248
				c0,4.4-3.6,8-8,8h-27.887c-4.4,0-8-3.6-8-8V211.362c0-4.4,3.6-8,8-8h24.763c4.4,0,8,3.6,8,8v8.081c0,4.4,2.743,5.668,6.096,2.819
				c0,0,26.597-22.604,48.567-22.604c9.683,0,18.53,1.725,26.55,5.171c8.016,3.449,14.079,7.848,18.195,13.198
				c4.111,5.352,6.973,11.423,8.59,18.215c1.612,6.792,2.421,16.517,2.421,29.174V359.295z"/>
			<path fill="none" stroke="#000000" stroke-width="2" stroke-linejoin="round" stroke-miterlimit="10" d="M1213.16,359.295
				c0,4.4-3.6,8-8,8h-27.887c-4.4,0-8-3.6-8-8v-67.664c0-4.4-0.115-11.598-0.257-15.996c0,0-0.681-21.152-2.555-26.35
				c-1.874-5.195-4.919-9.235-9.136-12.117c-4.217-2.88-9.293-4.322-15.228-4.322c-7.603,0-14.423,2.06-20.46,6.174
				c-6.04,4.117-10.179,9.571-12.416,16.362c-2.241,6.792-3.357,19.348-3.357,37.665v66.248c0,4.4-3.6,8-8,8h-27.887
				c-4.4,0-8-3.6-8-8V211.362c0-4.4,3.6-8,8-8h24.763c4.4,0,8,3.6,8,8v8.081c0,4.4,2.743,5.668,6.096,2.819
				c0,0,26.597-22.604,48.567-22.604c9.683,0,18.53,1.725,26.55,5.171c8.016,3.449,14.079,7.848,18.195,13.198
				c4.111,5.352,6.973,11.423,8.59,18.215c1.612,6.792,2.421,16.517,2.421,29.174V359.295z"/>
		</g>
		<g>
			<path fill="#242424" d="M1258.139,149c0-4.4,3.6-8,8-8h75.521c4.4,0,11.599,0.085,15.998,0.189c0,0,23.628,0.559,32.53,2.049
				c8.901,1.493,16.867,4.607,23.896,9.339c7.027,4.734,12.884,11.037,17.569,18.909c4.686,7.873,7.028,16.698,7.028,26.474
				c0,10.6-2.89,20.325-8.668,29.174c-5.778,8.852-13.615,15.489-23.505,19.913c13.95,4.014,24.677,10.858,32.173,20.53
				c7.496,9.675,11.245,21.046,11.245,34.114c0,10.292-2.421,20.299-7.263,30.023s-11.455,17.496-19.835,23.309
				c-8.383,5.815-18.718,9.392-31.001,10.729c-7.707,0.824-26.293,1.339-55.756,1.543h-69.934c-4.4,0-8-3.6-8-8V149z
				 M1312.368,178.665c-4.4,0-8,3.6-8,8v36.329c0,4.4,3.6,8,8,8h14.299c4.4,0,11.6-0.031,16-0.07c0,0,21.205-0.186,25.578-0.702
				c7.91-0.926,14.134-3.628,18.663-8.104c4.529-4.477,6.794-10.367,6.794-17.675c0-6.997-1.952-12.682-5.856-17.057
				c-3.904-4.373-9.711-7.023-17.414-7.95c-4.584-0.514-17.754-0.771-39.514-0.771H1312.368z M1312.368,268.658c-4.4,0-8,3.6-8,8
				v44.51c0,4.4,3.6,8,8,8h26.793c4.4,0,11.6-0.062,15.999-0.136c0,0,19.227-0.327,23.705-1.254
				c6.872-1.234,12.467-4.245,16.789-9.03c4.318-4.785,6.481-11.191,6.481-19.218c0-6.792-1.667-12.554-4.998-17.289
				c-3.334-4.731-8.148-8.181-14.446-10.342c-6.302-2.161-19.967-3.241-40.997-3.241H1312.368z"/>
			<path fill="none" stroke="#000000" stroke-width="2" stroke-linejoin="round" stroke-miterlimit="10" d="M1258.139,149
				c0-4.4,3.6-8,8-8h75.521c4.4,0,11.599,0.085,15.998,0.189c0,0,23.628,0.559,32.53,2.049c8.901,1.493,16.867,4.607,23.896,9.339
				c7.027,4.734,12.884,11.037,17.569,18.909c4.686,7.873,7.028,16.698,7.028,26.474c0,10.6-2.89,20.325-8.668,29.174
				c-5.778,8.852-13.615,15.489-23.505,19.913c13.95,4.014,24.677,10.858,32.173,20.53c7.496,9.675,11.245,21.046,11.245,34.114
				c0,10.292-2.421,20.299-7.263,30.023s-11.455,17.496-19.835,23.309c-8.383,5.815-18.718,9.392-31.001,10.729
				c-7.707,0.824-26.293,1.339-55.756,1.543h-69.934c-4.4,0-8-3.6-8-8V149z M1312.368,178.665c-4.4,0-8,3.6-8,8v36.329
				c0,4.4,3.6,8,8,8h14.299c4.4,0,11.6-0.031,16-0.07c0,0,21.205-0.186,25.578-0.702c7.91-0.926,14.134-3.628,18.663-8.104
				c4.529-4.477,6.794-10.367,6.794-17.675c0-6.997-1.952-12.682-5.856-17.057c-3.904-4.373-9.711-7.023-17.414-7.95
				c-4.584-0.514-17.754-0.771-39.514-0.771H1312.368z M1312.368,268.658c-4.4,0-8,3.6-8,8v44.51c0,4.4,3.6,8,8,8h26.793
				c4.4,0,11.6-0.062,15.999-0.136c0,0,19.227-0.327,23.705-1.254c6.872-1.234,12.467-4.245,16.789-9.03
				c4.318-4.785,6.481-11.191,6.481-19.218c0-6.792-1.667-12.554-4.998-17.289c-3.334-4.731-8.148-8.181-14.446-10.342
				c-6.302-2.161-19.967-3.241-40.997-3.241H1312.368z"/>
		</g>
		<g>
			<path fill="#242424" d="M1478.507,283.014c0-14.406,3.593-28.35,10.776-41.833c7.185-13.48,17.359-23.772,30.533-30.873
				c13.17-7.101,27.878-10.651,44.12-10.651c25.091,0,45.655,8.053,61.69,24.158c16.032,16.107,24.052,36.456,24.052,61.051
				c0,24.802-8.098,45.358-24.285,61.667C1609.201,362.846,1588.82,371,1564.249,371c-15.204,0-29.701-3.396-43.495-10.188
				c-13.799-6.792-24.286-16.749-31.471-29.869C1482.1,317.822,1478.507,301.846,1478.507,283.014z M1523.486,285.329
				c0,16.261,3.904,28.711,11.714,37.355c7.809,8.645,17.438,12.967,28.893,12.967c11.452,0,21.057-4.322,28.815-12.967
				c7.754-8.645,11.635-21.198,11.635-37.664c0-16.054-3.881-28.403-11.635-37.047c-7.759-8.644-17.363-12.966-28.815-12.966
				c-11.455,0-21.084,4.322-28.893,12.966C1527.391,256.617,1523.486,269.07,1523.486,285.329z"/>
			<path fill="none" stroke="#000000" stroke-width="2" stroke-linejoin="round" stroke-miterlimit="10" d="M1478.507,283.014
				c0-14.406,3.593-28.35,10.776-41.833c7.185-13.48,17.359-23.772,30.533-30.873c13.17-7.101,27.878-10.651,44.12-10.651
				c25.091,0,45.655,8.053,61.69,24.158c16.032,16.107,24.052,36.456,24.052,61.051c0,24.802-8.098,45.358-24.285,61.667
				C1609.201,362.846,1588.82,371,1564.249,371c-15.204,0-29.701-3.396-43.495-10.188c-13.799-6.792-24.286-16.749-31.471-29.869
				C1482.1,317.822,1478.507,301.846,1478.507,283.014z M1523.486,285.329c0,16.261,3.904,28.711,11.714,37.355
				c7.809,8.645,17.438,12.967,28.893,12.967c11.452,0,21.057-4.322,28.815-12.967c7.754-8.645,11.635-21.198,11.635-37.664
				c0-16.054-3.881-28.403-11.635-37.047c-7.759-8.644-17.363-12.966-28.815-12.966c-11.455,0-21.084,4.322-28.893,12.966
				C1527.391,256.617,1523.486,269.07,1523.486,285.329z"/>
		</g>
		<g>
			<path fill="#242424" d="M1670.954,367.295c-4.4,0-5.919-2.938-3.376-6.528l50.568-71.379c2.543-3.591,2.519-9.448-0.055-13.018
				l-47.96-66.519c-2.573-3.569-1.079-6.489,3.321-6.489h37.569c4.4,0,9.965,3.017,12.366,6.703l20.629,31.667
				c2.401,3.687,6.402,3.734,8.893,0.106l21.871-31.88c2.49-3.628,8.126-6.597,12.526-6.597h35.538c4.4,0,5.889,2.916,3.308,6.479
				l-46.839,64.686c-2.581,3.563-2.605,9.413-0.056,12.998l52.104,73.251c2.55,3.585,1.037,6.519-3.363,6.519h-37.882
				c-4.4,0-9.992-2.999-12.427-6.664l-24.881-37.457c-2.435-3.665-6.432-3.674-8.882-0.02l-25.137,37.496
				c-2.45,3.654-8.055,6.645-12.455,6.645H1670.954z"/>
			<path fill="none" stroke="#000000" stroke-width="2" stroke-linejoin="round" stroke-miterlimit="10" d="M1670.954,367.295
				c-4.4,0-5.919-2.938-3.376-6.528l50.568-71.379c2.543-3.591,2.519-9.448-0.055-13.018l-47.96-66.519
				c-2.573-3.569-1.079-6.489,3.321-6.489h37.569c4.4,0,9.965,3.017,12.366,6.703l20.629,31.667
				c2.401,3.687,6.402,3.734,8.893,0.106l21.871-31.88c2.49-3.628,8.126-6.597,12.526-6.597h35.538c4.4,0,5.889,2.916,3.308,6.479
				l-46.839,64.686c-2.581,3.563-2.605,9.413-0.056,12.998l52.104,73.251c2.55,3.585,1.037,6.519-3.363,6.519h-37.882
				c-4.4,0-9.992-2.999-12.427-6.664l-24.881-37.457c-2.435-3.665-6.432-3.674-8.882-0.02l-25.137,37.496
				c-2.45,3.654-8.055,6.645-12.455,6.645H1670.954z"/>
		</g>
	</g>
</g>
<g>
	<g>
		<g>
			<path fill="#161616" d="M410.754,375c-6.292,0-12.272-4.816-13.613-10.964l-29.221-133.968l-35.501,134.22
				c-1.589,6.007-7.701,10.712-13.913,10.712h-38.886c-6.238,0-12.307-4.741-13.817-10.793L231.808,227.91L202.08,364.038
				c-1.342,6.146-7.322,10.962-13.614,10.962H158c-3.331,0-6.335-1.389-8.241-3.811c-1.907-2.421-2.552-5.667-1.77-8.904
				l51.755-214.447c1.466-6.078,7.513-10.838,13.765-10.838h32.961c6.212,0,12.324,4.704,13.915,10.709l39.608,149.589
				l39.472-149.584c1.585-6.008,7.695-10.715,13.909-10.715h34.052c6.259,0,12.293,4.77,13.739,10.86l50.88,214.432
				c0.768,3.239,0.112,6.483-1.8,8.902S445.328,375,442,375H410.754z"/>
			<path d="M387.426,141c4.4,0,8.831,3.503,9.847,7.784l50.88,214.432C449.169,367.497,446.4,371,442,371h-31.246
				c-4.4,0-8.767-3.518-9.705-7.816L370,220.829c-0.472-2.165-1.135-3.249-1.819-3.249c-0.675,0-1.373,1.054-1.932,3.166
				l-37.696,142.519c-1.125,4.254-5.646,7.734-10.046,7.734h-38.886c-4.4,0-8.871-3.493-9.936-7.762l-36.2-145.131
				c-0.53-2.125-1.203-3.186-1.86-3.186c-0.663,0-1.312,1.081-1.783,3.24l-31.67,145.024c-0.938,4.298-5.307,7.815-9.707,7.815H158
				c-4.4,0-7.155-3.5-6.123-7.776l51.755-214.447c1.032-4.277,5.477-7.777,9.877-7.777h32.961c4.4,0,8.921,3.48,10.048,7.733
				l41.434,156.484c0.563,2.126,1.305,3.189,2.046,3.189c0.741,0,1.481-1.063,2.043-3.191l41.292-156.48
				c1.123-4.254,5.641-7.735,10.041-7.735H387.426 M387.426,133h-34.052c-8.074,0-15.716,5.887-17.776,13.694l-35.611,134.952
				l-35.735-134.961c-2.066-7.802-9.71-13.686-17.781-13.686h-32.961c-8.152,0-15.741,5.976-17.654,13.9L144.1,361.347
				c-1.071,4.438-0.154,8.927,2.516,12.317c2.67,3.392,6.819,5.336,11.384,5.336h30.466c8.098,0,15.795-6.197,17.522-14.108
				l26.078-119.417l29.857,119.7c1.966,7.882,9.575,13.825,17.698,13.825h38.886c8.071,0,15.715-5.885,17.78-13.688l31.261-118.188
				l25.686,117.765c1.726,7.913,9.422,14.111,17.521,14.111H442c4.559,0,8.708-1.941,11.383-5.325
				c2.675-3.385,3.606-7.87,2.554-12.306l-50.88-214.433C403.171,138.991,395.592,133,387.426,133L387.426,133z"/>
		</g>
	</g>
</g>
<g>
	<g>
		<g>
			<path fill="#242424" d="M387.426,141c4.4,0,8.831,3.503,9.847,7.784l50.88,214.432C449.169,367.497,446.4,371,442,371h-31.245
				c-4.4,0-8.767-3.518-9.705-7.816L370,220.829c-0.938-4.299-2.625-4.336-3.75-0.083l-37.696,142.519
				c-1.125,4.254-5.646,7.734-10.046,7.734h-38.886c-4.4,0-8.871-3.493-9.936-7.762l-36.201-145.131
				c-1.065-4.269-2.704-4.245-3.643,0.054l-31.67,145.024c-0.938,4.298-5.307,7.815-9.707,7.815H158c-4.4,0-7.155-3.5-6.123-7.776
				l51.755-214.447c1.032-4.277,5.477-7.777,9.877-7.777h32.96c4.4,0,8.921,3.48,10.048,7.733l41.435,156.484
				c1.126,4.253,2.966,4.253,4.089-0.002l41.292-156.48c1.123-4.254,5.641-7.735,10.041-7.735H387.426z"/>
			<path fill="none" stroke="#000000" stroke-width="2" stroke-linejoin="round" stroke-miterlimit="10" d="M387.426,141
				c4.4,0,8.831,3.503,9.847,7.784l50.88,214.432C449.169,367.497,446.4,371,442,371h-31.245c-4.4,0-8.767-3.518-9.705-7.816
				L370,220.829c-0.938-4.299-2.625-4.336-3.75-0.083l-37.696,142.519c-1.125,4.254-5.646,7.734-10.046,7.734h-38.886
				c-4.4,0-8.871-3.493-9.936-7.762l-36.201-145.131c-1.065-4.269-2.704-4.245-3.643,0.054l-31.67,145.024
				c-0.938,4.298-5.307,7.815-9.707,7.815H158c-4.4,0-7.155-3.5-6.123-7.776l51.755-214.447c1.032-4.277,5.477-7.777,9.877-7.777
				h32.96c4.4,0,8.921,3.48,10.048,7.733l41.435,156.484c1.126,4.253,2.966,4.253,4.089-0.002l41.292-156.48
				c1.123-4.254,5.641-7.735,10.041-7.735H387.426z"/>
		</g>
	</g>
</g>
</svg>
