<?xml version="1.0" encoding="utf-8"?>
<!-- Generator: Adobe Illustrator 16.0.0, SVG Export Plug-In . SVG Version: 6.00 Build 0)  -->
<!DOCTYPE svg PUBLIC "-//W3C//DTD SVG 1.1//EN" "http://www.w3.org/Graphics/SVG/1.1/DTD/svg11.dtd">
<svg version="1.1" id="Layer_2" xmlns="http://www.w3.org/2000/svg" xmlns:xlink="http://www.w3.org/1999/xlink" x="0px" y="0px"
	 width="512px" height="512px" viewBox="0 0 512 512" enable-background="new 0 0 512 512" xml:space="preserve">
<g>
	<path fill="#00B4FF" d="M48,504c-22.056,0-40-17.944-40-40V48C8,25.944,25.944,8,48,8h416c22.056,0,40,17.944,40,40v416
		c0,22.056-17.944,40-40,40H48z"/>
	<path fill="#161616" d="M464,16c17.6,0,32,14.4,32,32v416c0,17.6-14.4,32-32,32H48c-17.6,0-32-14.4-32-32V48c0-17.6,14.4-32,32-32
		H464 M464,0H48C21.533,0,0,21.533,0,48v416c0,26.468,21.533,48,48,48h416c26.467,0,48-21.532,48-48V48C512,21.533,490.467,0,464,0
		L464,0z"/>
</g>
<g>
	<g>
		<g>
			<path fill="#161616" d="M387.306,397c-6.738,0-13.155-5.152-14.61-11.73l-35.208-159.078l-42.775,159.377
				c-1.721,6.41-8.267,11.431-14.903,11.431h-49.862c-6.668,0-13.174-5.064-14.81-11.529l-40.955-161.808l-35.811,161.609
				c-1.457,6.576-7.875,11.729-14.612,11.729H84c-3.643,0-6.932-1.529-9.024-4.196c-2.092-2.666-2.795-6.226-1.929-9.764
				l62.806-256.459c1.59-6.494,8.073-11.581,14.759-11.581h42.753c6.636,0,13.183,5.02,14.904,11.429l47.723,177.622l47.558-177.616
				c1.718-6.412,8.263-11.435,14.899-11.435h44.063c6.694,0,13.167,5.099,14.734,11.607l61.742,256.446
				c0.852,3.537,0.138,7.094-1.961,9.757C434.93,395.473,431.64,397,428,397H387.306z"/>
			<path fill="#161616" d="M362.512,120c4.4,0,8.843,3.5,9.873,7.778l61.742,256.445C435.157,388.5,432.4,392,428,392h-40.694
				c-4.4,0-8.778-3.515-9.729-7.811l-37.895-171.216c-0.479-2.163-1.15-3.247-1.845-3.247c-0.685,0-1.392,1.053-1.957,3.163
				l-45.998,171.385c-1.141,4.25-5.674,7.727-10.074,7.727h-49.862c-4.4,0-8.883-3.49-9.963-7.756l-44.162-174.481
				c-0.537-2.123-1.219-3.183-1.885-3.183c-0.673,0-1.33,1.08-1.808,3.238l-38.639,174.371c-0.952,4.296-5.331,7.811-9.73,7.811H84
				c-4.4,0-7.144-3.497-6.097-7.771l62.806-256.459c1.046-4.274,5.503-7.771,9.903-7.771h42.753c4.4,0,8.934,3.477,10.076,7.726
				l50.484,187.899c0.571,2.124,1.322,3.187,2.073,3.187c0.751,0,1.502-1.063,2.072-3.188l50.311-187.896
				c1.139-4.25,5.669-7.728,10.069-7.728H362.512 M362.512,110h-44.063c-8.935,0-17.416,6.509-19.729,15.14l-42.737,159.61
				l-42.886-159.619C210.78,116.505,202.297,110,193.364,110h-42.753c-9.034,0-17.467,6.617-19.616,15.393L68.19,381.851
				c-1.234,5.04-0.194,10.157,2.852,14.04C74.089,399.773,78.812,402,84,402h39.759c9.137,0,17.518-6.728,19.494-15.647
				l31.252-141.036l35.785,141.382c2.208,8.724,10.659,15.302,19.657,15.302h49.862c8.934,0,17.417-6.507,19.732-15.135
				l37.479-139.645l30.793,139.13c1.974,8.921,10.354,15.649,19.492,15.649H428c5.182,0,9.903-2.222,12.955-6.097
				c3.053-3.874,4.107-8.985,2.894-14.022l-61.741-256.444C379.987,116.636,371.563,110,362.512,110L362.512,110z"/>
		</g>
	</g>
</g>
<g>
	<g>
		<g>
			<path fill="#FFFFFF" d="M362.512,120c4.4,0,8.843,3.5,9.873,7.778l61.742,256.445C435.157,388.5,432.4,392,428,392h-40.694
				c-4.4,0-8.778-3.515-9.729-7.811l-37.895-171.216c-0.95-4.296-2.662-4.334-3.802-0.084l-45.998,171.385
				c-1.141,4.25-5.674,7.727-10.074,7.727h-49.862c-4.4,0-8.883-3.49-9.963-7.756l-44.162-174.481
				c-1.08-4.266-2.742-4.241-3.693,0.055l-38.639,174.371c-0.952,4.296-5.331,7.811-9.73,7.811H84c-4.4,0-7.144-3.497-6.097-7.771
				l62.806-256.459c1.046-4.274,5.503-7.771,9.903-7.771h42.753c4.4,0,8.934,3.477,10.076,7.726l50.484,187.899
				c1.142,4.249,3.006,4.248,4.145-0.002l50.311-187.896c1.139-4.25,5.669-7.728,10.069-7.728H362.512z"/>
			<path fill="none" stroke="#161616" stroke-width="2" stroke-linejoin="round" stroke-miterlimit="10" d="M362.512,120
				c4.4,0,8.843,3.5,9.873,7.778l61.742,256.445C435.157,388.5,432.4,392,428,392h-40.694c-4.4,0-8.778-3.515-9.729-7.811
				l-37.895-171.216c-0.95-4.296-2.662-4.334-3.802-0.084l-45.998,171.385c-1.141,4.25-5.674,7.727-10.074,7.727h-49.862
				c-4.4,0-8.883-3.49-9.963-7.756l-44.162-174.481c-1.08-4.266-2.742-4.241-3.693,0.055l-38.639,174.371
				c-0.952,4.296-5.331,7.811-9.73,7.811H84c-4.4,0-7.144-3.497-6.097-7.771l62.806-256.459c1.046-4.274,5.503-7.771,9.903-7.771
				h42.753c4.4,0,8.934,3.477,10.076,7.726l50.484,187.899c1.142,4.249,3.006,4.248,4.145-0.002l50.311-187.896
				c1.139-4.25,5.669-7.728,10.069-7.728H362.512z"/>
		</g>
	</g>
</g>
</svg>
