<?xml version="1.0" encoding="utf-8"?>
<!-- Generator: Adobe Illustrator 16.0.0, SVG Export Plug-In . SVG Version: 6.00 Build 0)  -->
<!DOCTYPE svg PUBLIC "-//W3C//DTD SVG 1.1//EN" "http://www.w3.org/Graphics/SVG/1.1/DTD/svg11.dtd">
<svg version="1.1" id="Layer_2" xmlns="http://www.w3.org/2000/svg" xmlns:xlink="http://www.w3.org/1999/xlink" x="0px" y="0px"
	 width="512px" height="512px" viewBox="0 0 512 512" enable-background="new 0 0 512 512" xml:space="preserve">
<rect x="16" y="16" fill="#FFFF00" width="80" height="480"/>
<rect x="96" y="16" fill="#00B4FF" width="80" height="480"/>
<rect x="176" y="16" fill="#00FF00" width="80" height="480"/>
<rect x="256" y="16" fill="#FF00FF" width="80" height="480"/>
<rect x="336" y="16" fill="#FF0000" width="80" height="480"/>
<rect x="416" y="16" fill="#0000FF" width="80" height="480"/>
<g>
	<path fill="#161616" d="M476,16c11,0,20,9,20,20v440c0,11-9,20-20,20H36c-11,0-20-9-20-20V36c0-11,9-20,20-20H476 M476,0H36
		C16.149,0,0,16.149,0,36v440c0,19.851,16.149,36,36,36h440c19.851,0,36-16.149,36-36V36C512,16.149,495.851,0,476,0L476,0z"/>
</g>
</svg>
